<svg id="logo" xmlns="http://www.w3.org/2000/svg" width="193.36" height="193.36" viewBox="0 0 193.36 193.36">
  <defs>
    <style>
      .cls-1, .cls-14, .cls-15 {
        fill: #fff;
      }

      .cls-2 {
        fill: #22c4f3;
      }

      .cls-3 {
        fill: #0b0f30;
      }

      .cls-19, .cls-4 {
        fill: #313a5f;
      }

      .cls-10, .cls-13, .cls-20, .cls-5, .cls-6 {
        fill: none;
      }

      .cls-5 {
        stroke: #bb9d42;
        stroke-width: 2px;
      }

      .cls-10, .cls-13, .cls-5 {
        stroke-miterlimit: 10;
      }

      .cls-10, .cls-15, .cls-7, .cls-8, .cls-9 {
        font-size: 56px;
      }

      .cls-11, .cls-16, .cls-17, .cls-7 {
        fill: #bb9d42;
      }

      .cls-10, .cls-11, .cls-12, .cls-13, .cls-14, .cls-15, .cls-17, .cls-7, .cls-8, .cls-9 {
        font-family: Cardo-Bold, Cardo;
        font-weight: 700;
      }

      .cls-12, .cls-9 {
        fill: #373435;
      }

      .cls-10, .cls-13 {
        stroke: #fff;
      }

      .cls-11, .cls-12, .cls-13, .cls-14 {
        font-size: 50px;
      }

      .cls-13, .cls-20 {
        stroke-width: 0.75px;
      }

      .cls-17 {
        font-size: 15px;
        letter-spacing: -0.02em;
      }

      .cls-18 {
        letter-spacing: 0em;
      }

      .cls-19 {
        font-size: 5px;
        font-family: Cardo-Regular, Cardo;
      }

      .cls-20 {
        stroke: #bb9242;
        stroke-linecap: round;
        stroke-linejoin: round;
      }
    </style>
  </defs>
  <circle id="white-border" class="cls-1" cx="96.68" cy="96.68" r="96.68"/>
  <path id="sky" class="cls-2" d="M159.77,79.2H29.64c.17-.75.35-1.49.56-2.23a66.89,66.89,0,0,1,129,0C159.41,77.7,159.59,78.45,159.77,79.2Z"/>
  <g id="mountains">
    <path class="cls-1" d="M96.36,80.79,82.3,64.53l-3.49-4-.6-.68L62.89,42.09a.51.51,0,0,0-.75,0l-36.57,41a.56.56,0,0,0,.37.94l2.53,0,33.17.25,10.45.07,26.36.2a.49.49,0,0,0,.39-.2.57.57,0,0,0,0-.73Z"/>
    <path class="cls-1" d="M119.43,60.73l-2.91-4.95L103.11,33a1.4,1.4,0,0,0-2.46,0L91.83,48,85.54,58.68l-3.3,5.61L72.06,81.57a1.55,1.55,0,0,0,1.23,2.36h57.17a1.55,1.55,0,0,0,1.24-2.36Z"/>
    <path class="cls-1" d="M161.87,83l-3-3.63L128.4,42.22a.49.49,0,0,0-.76,0L116.52,55.78l-3.12,3.8-6.58,8L96.35,80.37,94.17,83a.54.54,0,0,0,.38.89h66.94A.54.54,0,0,0,161.87,83Z"/>
    <path class="cls-1" d="M106.82,67.61l-7.15-9.35L91.83,48l-1.45-1.9a.51.51,0,0,0-.8,0L79.39,59.42l-.66.88L61.36,83a.55.55,0,0,0,.14.81.45.45,0,0,0,.26.08H118.2a.55.55,0,0,0,.4-.89Z"/>
    <polygon id="snow-3" class="cls-3" points="131.72 49.18 129.23 46.11 129.23 50.65 133.61 56.82 133.19 55.14 137.39 56.82 131.72 49.18"/>
    <g id="snow-2">
      <polygon class="cls-3" points="100.73 34.76 96.68 49.16 97.84 50.76 105.72 58.38 104.96 51.51 109.29 55.84 109.11 52.27 112.68 54.34 100.73 34.76"/>
      <polygon class="cls-1" points="94.32 48.93 100.35 48.8 98.08 44.21 94.32 48.93"/>
    </g>
    <path id="snow-1" class="cls-4" d="M63.69,50a3.27,3.27,0,0,1,2.67,1.47c.82,1.46,1.09,5.19,1.09,5.19L71,53.54,64.57,46.3Z"/>
  </g>
  <path id="gold-circle" class="cls-5" d="M165.92,95.74A71.17,71.17,0,1,1,25.43,79.2c.19-.79.38-1.58.6-2.37a71.21,71.21,0,0,1,137.34,0c.22.78.42,1.57.61,2.37A71,71,0,0,1,165.92,95.74Z"/>
  <path id="white-circle" class="cls-6" d="M170.87,95.75a76,76,0,0,1-4.21,25,74.84,74.84,0,0,1-6.73,14.34A76.26,76.26,0,0,1,20.57,78.24c0-.06,0-.12,0-.18.2-.84.41-1.69.64-2.53a76.16,76.16,0,0,1,146.89,0c.24.83.45,1.68.65,2.53,0,.06,0,.12,0,.18A75.46,75.46,0,0,1,170.87,95.75Z"/>
  <path class="cls-1" d="M170.87,95.75a76,76,0,0,1-4.21,25H23a76.63,76.63,0,0,1-2.42-42.54H168.83A75.46,75.46,0,0,1,170.87,95.75Z"/>
  <g id="CLEAR">
    <g id="C">
      <text class="cls-7" transform="translate(5.55 118.94) scale(1.02 1)">C</text>
      <g>
        <text class="cls-8" transform="translate(7.25 117.62)"><tspan xml:space="preserve">C  </tspan></text>
        <text class="cls-9" transform="translate(7.25 117.62)"><tspan xml:space="preserve">C  </tspan></text>
        <text class="cls-10" transform="translate(7.25 117.62)"><tspan xml:space="preserve">C  </tspan></text>
      </g>
    </g>
    <g id="L">
      <text class="cls-11" transform="translate(49.79 115.55)">L</text>
      <g>
        <text class="cls-12" transform="translate(48.66 115.55)">L</text>
        <text class="cls-12" transform="translate(48.66 115.55)">L</text>
        <text class="cls-13" transform="translate(48.66 115.55)">L</text>
      </g>
    </g>
    <g id="E">
      <text class="cls-11" transform="translate(81.69 115.55)">E</text>
      <g>
        <text class="cls-11" transform="translate(80.38 115.55)">E</text>
        <text class="cls-14" transform="translate(80.38 115.55)">E</text>
        <text class="cls-12" transform="translate(80.38 115.55)">E</text>
        <text class="cls-13" transform="translate(80.38 115.55)">E</text>
      </g>
    </g>
    <g id="A">
      <text class="cls-11" transform="translate(112.75 115.55)">A</text>
      <g>
        <text class="cls-11" transform="translate(112.11 114.71)">A</text>
        <text class="cls-14" transform="translate(112.11 114.71)">A</text>
        <text class="cls-12" transform="translate(112.11 114.71)">A</text>
        <text class="cls-13" transform="translate(112.11 114.71)">A</text>
      </g>
    </g>
    <g id="R">
      <text class="cls-7" transform="translate(147.48 118.94)">R</text>
      <g>
        <text class="cls-9" transform="translate(146.7 117.62)">R</text>
        <text class="cls-15" transform="translate(146.7 117.62)">R</text>
        <text class="cls-9" transform="translate(146.7 117.62)">R</text>
        <text class="cls-10" transform="translate(146.7 117.62)">R</text>
      </g>
    </g>
  </g>
  <g id="gold-circleOpen">
    <polygon class="cls-16" points="179.4 76.91 162.65 76.72 162.71 78.33 179.4 76.91"/>
    <polygon class="cls-16" points="177.05 120.97 160.3 120.78 160.36 122.38 177.05 120.97"/>
    <polygon class="cls-16" points="12.52 120.89 29.27 120.78 29.21 122.38 12.52 120.89"/>
    <polygon class="cls-16" points="8.47 77.53 26.78 76.73 26.78 78.33 8.47 77.53"/>
  </g>
  <g id="CARE">
    <polygon class="cls-16" points="47.22 125.15 71.59 124.3 71.59 126.01 47.22 125.15"/>
    <text class="cls-17" transform="translate(75.55 130.07)">C<tspan class="cls-18" x="11.26" y="0">ARE</tspan></text>
    <polygon class="cls-16" points="147.45 125.15 123.08 124.3 123.08 126.01 147.45 125.15"/>
  </g>
  <g id="made-with">
    <text class="cls-19" transform="translate(108.06 141.29)">HYDRAGLYDE</text>
    <text class="cls-19" transform="translate(54.37 141.3)">MADE WITH</text>
    <g id="eye">
      <path class="cls-20" d="M88.38,138.6a12.88,12.88,0,0,0,18.23,0v-.08a12.88,12.88,0,0,0-18.23,0Z"/>
      <circle class="cls-4" cx="97.49" cy="138.56" r="3.57"/>
      <circle class="cls-16" cx="97.49" cy="138.56" r="1.74"/>
    </g>
  </g>
  <g>
    <path class="cls-16" d="M71,155.75l.07,0a.6.6,0,0,1,.36.32.65.65,0,0,1,0,.53.81.81,0,0,1-.33.44,1.3,1.3,0,0,1-.52.19,1.07,1.07,0,0,1-.51,0,1,1,0,0,1-.6-.43.35.35,0,0,1,0-.14q0-.12.21-.06s.08.06.14.16L70,157a.59.59,0,0,0,.23.14.57.57,0,0,0,.52-.07.87.87,0,0,0,.34-.44.58.58,0,0,0,0-.45.51.51,0,0,0-.3-.26.33.33,0,0,0-.19,0l-.1,0h0l0,0a0,0,0,0,1,0,0l0,0h.08c.42-.12.65-.27.72-.45a.36.36,0,0,0,0-.3.39.39,0,0,0-.22-.2.69.69,0,0,0-.72.16h0s0,0,0,0l0,0v0l0-.06a1,1,0,0,1,.17-.11.82.82,0,0,1,.24-.1.71.71,0,0,1,.43,0,.85.85,0,0,1,.43.29.39.39,0,0,1,.05.38.64.64,0,0,1-.39.34l-.15,0-.1,0h0Z"/>
    <path class="cls-16" d="M72.75,156.75a.39.39,0,0,1-.24,0,.5.5,0,0,1-.33-.37.92.92,0,0,1,0-.59,1.09,1.09,0,0,1,.34-.5.47.47,0,0,1,.46-.11.49.49,0,0,1,.35.37,1.12,1.12,0,0,1,0,.6,1,1,0,0,1-.33.49A.55.55,0,0,1,72.75,156.75Zm-.33-.88a1.53,1.53,0,0,0-.08.5.28.28,0,0,0,.21.25c.17.06.32,0,.43-.3,0-.08.06-.15.08-.22l.1-.34c0-.26,0-.41-.18-.46a.23.23,0,0,0-.2,0,.57.57,0,0,0-.17.15A2.19,2.19,0,0,0,72.42,155.87Zm2.57-.13.25.08c-1,.74-2,1.46-3.1,2.16l-.26-.08C72.94,157.2,74,156.48,75,155.74Zm-.53,2.83a.36.36,0,0,1-.25,0,.5.5,0,0,1-.34-.35.88.88,0,0,1,0-.6,1,1,0,0,1,.33-.51.46.46,0,0,1,.46-.12.5.5,0,0,1,.36.36,1.06,1.06,0,0,1,0,.61,1,1,0,0,1-.31.49A.6.6,0,0,1,74.46,158.57Zm-.36-.86a1.08,1.08,0,0,0-.07.5.27.27,0,0,0,.22.24c.18.06.32,0,.42-.31,0-.08.06-.16.08-.23s.07-.26.08-.33c0-.26,0-.41-.19-.46a.26.26,0,0,0-.21,0,.6.6,0,0,0-.16.16A1.78,1.78,0,0,0,74.1,157.71Z"/>
    <path class="cls-16" d="M79.2,159.48c0,.17.07.29.33.35v.07h0l-1.32-.31s0,0,0,0v0s0,0,.1,0a1,1,0,0,0,.25,0c.14,0,.23-.06.25-.16l.21-.9v0h0l-1.6-.4h0s0,0,0,0l-.24.93c0,.15.07.26.31.32,0,0,0,0,0,0v0s0,0,0,0l-1.15-.29V159h.05c.23.06.37,0,.41-.18.18-.67.35-1.35.52-2,0-.15,0-.25-.21-.31s0,0,0,0v0s0,0,0,0l1,.26s0,0,0,0v0h0c-.19-.05-.31,0-.35.19s-.15.58-.22.87t0,0h0l1.6.4h0s0,0,0,0l.21-.91v-.08s0-.09-.11-.13a1.46,1.46,0,0,0-.28-.13s0,0,0,0v0h0l1.16.26v.06s0,0,0,0c-.2,0-.32,0-.36.2C79.49,158.13,79.35,158.81,79.2,159.48Z"/>
    <path class="cls-16" d="M80.75,160.17s-.07,0-.07,0v0s0,0,.07,0h.08a.39.39,0,0,0,.23,0,.19.19,0,0,0,.1-.15l.12-.64a0,0,0,0,0,0,0c-.2-.47-.39-.94-.58-1.42a.7.7,0,0,0-.31-.41l0,0-.11,0a.05.05,0,0,1,0-.09l1.14.25s0,0,0,0,0,0,0,0h-.19a.13.13,0,0,0-.12.1.13.13,0,0,0,0,.09c.15.39.31.78.48,1.18l0,0h0s0,0,.07,0l.71-.78.07-.09a.14.14,0,0,0,0-.1c0-.09,0-.16-.17-.2s-.07,0-.07,0,0,0,0,0,0,0,0,0l.94.17s0,0,0,0a.05.05,0,0,1,0,0h-.14a.69.69,0,0,0-.34.16l0,0-1,1.15c0,.24-.09.48-.13.72a.17.17,0,0,0,0,.17.34.34,0,0,0,.2.12c.1,0,.15.06.14.07v0s0,0-.08,0Z"/>
    <path class="cls-16" d="M83.38,157.88l0,0h0l.65.09.25,0,.25,0a3.69,3.69,0,0,1,.52.11l.34.1a1.2,1.2,0,0,1,.35.21,1.58,1.58,0,0,1,.29.34,1.24,1.24,0,0,1,.21.82,1.4,1.4,0,0,1-.33.73,1.62,1.62,0,0,1-1.08.5,2.1,2.1,0,0,1-.43,0L83,160.58s0,0,0,0v-.06H83c.25,0,.39,0,.41-.16.12-.71.23-1.41.34-2.12a.14.14,0,0,0-.06-.17.31.31,0,0,0-.18-.09l-.13,0,0,0Zm.86.2s0,0,0,0c-.13.79-.25,1.57-.37,2.36,0,.1.07.16.26.2l.18,0a1.45,1.45,0,0,0,1.1-.2,1.18,1.18,0,0,0,.5-.87,1.35,1.35,0,0,0-.22-1,1.23,1.23,0,0,0-.85-.5Z"/>
    <path class="cls-16" d="M86.43,161.1s0,0,0,0v0s0,0,0,0h.19c.14,0,.22-.08.24-.2.07-.69.15-1.37.23-2a.28.28,0,0,0-.11-.26.48.48,0,0,0-.18-.06h-.07a0,0,0,0,1,0,0v0l0,0,1.12.1.2,0a1.06,1.06,0,0,1,.58.31.8.8,0,0,1,.19.59.58.58,0,0,1-.34.49l-.2.08q.26.51.54,1a.88.88,0,0,0,.41.4s0,0,0,0,0,.05-.07.05a.91.91,0,0,1-.72-.4l-.11-.18-.46-.84-.49-.08h0s0,0,0,0c0,.3-.06.6-.1.9a.19.19,0,0,0,0,.16.35.35,0,0,0,.22.1l.1,0,.08,0s0,0,0,0v0a0,0,0,0,1,0,0Zm1.26-2.55h-.12s0,0,0,0c0,.39-.08.78-.13,1.17v.06s0,0,0,0l.21,0c.38,0,.63-.06.73-.31a1,1,0,0,0,.07-.28.61.61,0,0,0-.16-.5.74.74,0,0,0-.49-.24h-.1Z"/>
    <path class="cls-16" d="M91.59,161.55a1.33,1.33,0,0,1-.39,0,2.1,2.1,0,0,1-.65-.14,1.57,1.57,0,0,1-.66-.48,1.37,1.37,0,0,1,0-1.65,1.48,1.48,0,0,1,.62-.47,1.84,1.84,0,0,1,1.59.08,1.61,1.61,0,0,1,.53.54,1.28,1.28,0,0,1,.18.71,1.33,1.33,0,0,1-.23.71,1.62,1.62,0,0,1-.6.53A1.8,1.8,0,0,1,91.59,161.55ZM90.07,160a1.51,1.51,0,0,0,.11.65,1.37,1.37,0,0,0,.4.55,1.11,1.11,0,0,0,.66.24,1,1,0,0,0,.85-.34,1.34,1.34,0,0,0,.3-.87,1.4,1.4,0,0,0-.28-.94,1.14,1.14,0,0,0-.37-.32,1.12,1.12,0,0,0-.45-.14,1.1,1.1,0,0,0-.38,0,1,1,0,0,0-.28.11,1.3,1.3,0,0,0-.22.19,1,1,0,0,0-.17.24A1.49,1.49,0,0,0,90.07,160Z"/>
    <path class="cls-16" d="M96.27,160.44a0,0,0,0,1,0,0s0,0,0,0l-.11,0-.11,0a.2.2,0,0,0-.11.19c0,.21,0,.42,0,.64,0,0-.08.06-.22.11l-.36.11a2.05,2.05,0,0,1-1.16,0,1.37,1.37,0,0,1-.81-.77,1.31,1.31,0,0,1-.11-.54,1.77,1.77,0,0,1,.07-.45,1.43,1.43,0,0,1,.72-.83,1.45,1.45,0,0,1,.73-.19,2.79,2.79,0,0,1,.81.15l.09,0h0l.08,0h0s0,0,0,0c0,.22,0,.44,0,.65,0,0,0,0,0,0h0s0,0-.06-.1v0a.83.83,0,0,0-.86-.61,1,1,0,0,0-.84.37,1.42,1.42,0,0,0-.33.9,1.4,1.4,0,0,0,.3.93,1.06,1.06,0,0,0,.89.42,1.34,1.34,0,0,0,.48-.08.33.33,0,0,0,.11-.09v-.53a.32.32,0,0,0-.11-.27.69.69,0,0,0-.41-.09s0,0,0,0,0,0,0,0Z"/>
    <path class="cls-16" d="M96.43,161.63v0a0,0,0,0,1,0,0h.23l.16,0a.23.23,0,0,0,.17-.24c0-.69,0-1.37-.05-2.06a.26.26,0,0,0-.24-.24l-.14,0h0a0,0,0,0,1,0,0v0s0,0,0,0c.64,0,1.27,0,1.91-.06l.06,0s0,0,0,.05l.06.57s0,0,0,0l0,0a.64.64,0,0,1,0-.14.52.52,0,0,0-.08-.2.24.24,0,0,0-.18-.1l-.85,0a0,0,0,0,0,0,0l0,1s0,0,0,0l.71,0c.18,0,.27-.11.26-.31a0,0,0,0,1,0,0h0s0,0,0,0c0,.28,0,.56,0,.84h-.06l0,0c0-.19-.07-.3-.19-.33h-.11l-.7,0s0,0,0,0l0,1a.14.14,0,0,0,.15.16h.08l.7,0a.36.36,0,0,0,.32-.19.53.53,0,0,0,.09-.3.06.06,0,0,1,.06,0s0,0,0,0c0,.22,0,.44,0,.66,0,0,0,0,0,0-.78,0-1.56.06-2.34.07A0,0,0,0,1,96.43,161.63Z"/>
    <path class="cls-16" d="M99.21,161.56a0,0,0,0,1,0,0v0l0,0h.05l.15,0c.1,0,.15-.19.14-.4,0-.67-.09-1.35-.13-2,0-.09-.09-.14-.27-.14h-.08s0,0,0,0v-.05h0l.74,0c.68.64,1.38,1.27,2.09,1.89l0,0h0s0,0,0,0l-.12-1.34a1.36,1.36,0,0,0-.12-.5.27.27,0,0,0-.28-.09h-.12v-.05h0l1-.1s0,0,0,0v0s0,0-.06,0l-.18.09c-.09.05-.13.11-.12.17.07.8.15,1.59.22,2.38a.11.11,0,0,1,0,.06.06.06,0,0,1-.06,0h-.07l-.06-.05c-.79-.67-1.55-1.36-2.3-2.06,0,0,0,0,0,0s0,0,0,0l.12,1.94c0,.12.11.2.32.22h.13s0,0,0,0v0s0,0,0,0Z"/>
    <path class="cls-16" d="M104.07,161.15s0,0,0,0v0s0,0,0,0l.06,0,.06,0c.14-.05.2-.13.19-.25-.09-.69-.18-1.37-.26-2.05,0-.12,0-.19-.1-.22a.45.45,0,0,0-.25,0h-.09s0,0,0,0a.05.05,0,0,1,0,0h0l1.11-.17.21,0a1,1,0,0,1,.63.17.78.78,0,0,1,.32.51.79.79,0,0,1-.16.6.7.7,0,0,1-.2.22.51.51,0,0,1-.25.11l-.61.06h0a0,0,0,0,0,0,0c0,.27.07.53.11.8a.19.19,0,0,0,.08.15.61.61,0,0,0,.28,0h.19V161l0,0Zm.55-2.78h-.12s0,0,0,0c0,.41.1.83.16,1.25v0s0,0,0,0h.21a.72.72,0,0,0,.49-.28.73.73,0,0,0,.13-.56.65.65,0,0,0-.26-.46.75.75,0,0,0-.54-.1h-.1Z"/>
    <path class="cls-16" d="M106.39,160.82v-.06s0,0,0,0h0l.17,0,.17-.05a.22.22,0,0,0,.13-.26l-.33-2c0-.13-.12-.2-.28-.21h-.18s0,0,0,0v0s0,0,0,0l1.89-.31h.06s0,0,0,.05.09.37.13.55c0,0,0,0,0,0a0,0,0,0,1,0,0,.53.53,0,0,1-.06-.13.49.49,0,0,0-.1-.19.26.26,0,0,0-.2-.07l-.83.14s0,0,0,0c.06.33.11.67.17,1,0,0,0,0,0,0,.24,0,.47-.07.7-.12s.25-.14.22-.34c0,0,0,0,0,0h.07l.15.82s0,0,0,0h0s0,0,0,0q-.06-.28-.24-.3h-.1l-.7.12s0,0,0,0c0,.31.1.62.16.94a.15.15,0,0,0,.17.14h.08l.69-.12a.35.35,0,0,0,.29-.23.65.65,0,0,0,0-.31.06.06,0,0,1,0-.06s0,0,0,0l.06.66,0,0c-.76.14-1.53.26-2.3.38C106.39,160.83,106.39,160.83,106.39,160.82Z"/>
    <path class="cls-16" d="M109.09,160.37s0,0,0,0v0s0,0,0,0h0l0,0,.06,0h0a.24.24,0,0,0,.17-.27c-.14-.67-.27-1.35-.41-2a.25.25,0,0,0-.18-.21.55.55,0,0,0-.18,0l-.08,0h0v-.05s0,0,0,0l1.07-.24.2,0a.88.88,0,0,1,.64.12.75.75,0,0,1,.36.49.58.58,0,0,1-.17.57l-.17.14.82.81a.88.88,0,0,0,.51.25s0,0,0,0,0,.06,0,.07a.92.92,0,0,1-.81-.17l-.15-.13c-.24-.22-.47-.44-.69-.67l-.49.08h0s0,0,0,0l.18.88a.19.19,0,0,0,.1.14.38.38,0,0,0,.23,0h.21v.05h0Zm.41-2.81h0l-.06,0s0,0,0,0l.24,1.16v.05a.05.05,0,0,0,.05,0l.21,0c.37-.08.57-.25.59-.52a.74.74,0,0,0,0-.29.6.6,0,0,0-.3-.43.73.73,0,0,0-.53-.07h-.1Z"/>
    <path class="cls-16" d="M114.1,159.23a1.33,1.33,0,0,1-.35.16,2.11,2.11,0,0,1-.66.06,1.67,1.67,0,0,1-.77-.25,1.41,1.41,0,0,1-.49-1.58,1.35,1.35,0,0,1,.45-.64,1.78,1.78,0,0,1,.73-.39,1.63,1.63,0,0,1,.79,0,1.58,1.58,0,0,1,.67.34,1.36,1.36,0,0,1,.39.62,1.28,1.28,0,0,1,0,.75,1.61,1.61,0,0,1-.4.69A1.83,1.83,0,0,1,114.1,159.23Zm-1.91-1a1.44,1.44,0,0,0,.3.59,1.35,1.35,0,0,0,.55.4,1.11,1.11,0,0,0,.7,0,1,1,0,0,0,.7-.58,1.37,1.37,0,0,0,0-.92,1.41,1.41,0,0,0-.55-.81,1.27,1.27,0,0,0-.45-.19.93.93,0,0,0-.47,0,1.09,1.09,0,0,0-.58.33,1.28,1.28,0,0,0-.15.25,1.31,1.31,0,0,0-.09.28A1.45,1.45,0,0,0,112.19,158.22Z"/>
    <path class="cls-16" d="M116.2,158.45c0,.08.12.08.29,0s.1,0,.1,0l0,.05,0,0-1.09.32s0,0,0,0v0s0,0,0,0l.08,0a.84.84,0,0,0,.42-.49l.09-.2c.14-.32.26-.64.39-1l-.82-.56-.15-.1a.76.76,0,0,0-.51-.19.46.46,0,0,0-.22,0h0v-.05s0,0,0,0l1.27-.37s0,0,0,0l0,0s0,0-.09,0a.35.35,0,0,0-.15.07.1.1,0,0,0-.07.12.13.13,0,0,0,.06.07l.75.53h0l0-.06c.11-.27.22-.54.32-.81a.14.14,0,0,0,0-.11c0-.08-.14-.08-.33,0h0v-.05s0,0,0,0l1-.33s0,0,0,0v0s0,0,0,0a.93.93,0,0,0-.5.54c-.11.32-.24.63-.36.95h0l.1.07.64.43.62.39a.5.5,0,0,0,.3.05h.06l.09,0a0,0,0,0,1,.06,0s0,0-.07.07l-1.1.35s0,0,0,0v0s0,0,0,0,.21-.1.19-.18a.23.23,0,0,0,0,0l-1-.65h0l0,0-.42,1.06A.1.1,0,0,0,116.2,158.45Z"/>
    <path class="cls-16" d="M118.4,155.39c-.05-.15-.16-.19-.34-.13s0,0,0,0v0s0,0,0,0c.32-.1.64-.21.95-.33h0v0s0,0-.08,0a.28.28,0,0,0-.13.11.23.23,0,0,0,0,.23l.69,2c.06.15.17.19.36.12h0l0,.05v0l-1,.34h0v0s0,0,.08-.05a.31.31,0,0,0,.15-.1.29.29,0,0,0,0-.24C118.86,156.7,118.63,156.05,118.4,155.39Z"/>
    <path class="cls-16" d="M119.24,154.77s0,0,0,0l0,0,.61-.24.23-.09.24-.09a3.77,3.77,0,0,1,.5-.16l.35-.07a1.09,1.09,0,0,1,.4,0,1.23,1.23,0,0,1,.42.14,1.24,1.24,0,0,1,.58.62,1.29,1.29,0,0,1,.07.8,1.51,1.51,0,0,1-.68,1,2.75,2.75,0,0,1-.38.2l-1.44.53h0l0-.05s0,0,0,0l0,0c.24-.08.33-.2.28-.34l-.75-2a.16.16,0,0,0-.14-.12.35.35,0,0,0-.2,0l-.12.05h0Zm.84-.24s0,0,0,.07l.84,2.23c0,.09.15.11.33,0l.17-.06a1.47,1.47,0,0,0,.85-.71,1.17,1.17,0,0,0,0-1,1.32,1.32,0,0,0-.67-.75,1.17,1.17,0,0,0-1,0Z"/>
    <path class="cls-16" d="M123.36,156.11l0-.05s0,0,0,0l0,0,.17-.07.14-.09a.21.21,0,0,0,.07-.28l-.81-1.89a.24.24,0,0,0-.31-.14l-.14,0,0,0h0l0,0s0,0,0,0l1.77-.77h.06l0,0,.26.51s0,0,0,0h0a.35.35,0,0,1-.09-.12.78.78,0,0,0-.15-.16.28.28,0,0,0-.21,0l-.77.34s0,0,0,0c.14.31.27.62.4.93,0,0,0,0,0,0l.65-.28a.25.25,0,0,0,.13-.39s0,0,0,0l.05,0h0c.11.26.23.51.34.76,0,0,0,0,0,0l0,0h0c-.08-.18-.18-.25-.3-.23a.23.23,0,0,0-.11,0l-.65.28a0,0,0,0,0,0,0l.38.87a.16.16,0,0,0,.2.1l.08,0,.65-.29a.36.36,0,0,0,.23-.3.52.52,0,0,0,0-.3s0-.06,0-.08,0,0,0,0l.21.63s0,0,0,0l-2.16.93Z"/>
  </g>
</svg>
